<?xml version="1.0" standalone="no"?><!DOCTYPE svg PUBLIC "-//W3C//DTD SVG 1.1//EN" "http://www.w3.org/Graphics/SVG/1.1/DTD/svg11.dtd"><svg t="1583396503147" class="icon" viewBox="0 0 1243 1024" version="1.1" xmlns="http://www.w3.org/2000/svg" p-id="947" xmlns:xlink="http://www.w3.org/1999/xlink" width="242.7734375" height="200"><defs><style type="text/css"></style></defs><path d="M621.617021 96c194.042553 0 391.489362 70.808511 539.914894 219.234043 19.06383 19.06383 49.021277 19.06383 68.085106 0 8.851064-8.851064 14.297872-21.106383 14.297873-34.042554s-4.765957-25.191489-14.297873-34.042553C1062.808511 80.340426 840.851064 0 622.297872 0 403.06383 0 181.787234 80.340426 14.978723 247.148936 6.12766 256 0.680851 268.255319 0.680851 281.191489s4.765957 25.191489 14.297872 34.042554c19.06383 19.06383 49.021277 19.06383 68.085107 0 148.425532-148.425532 345.191489-219.234043 539.914893-219.234043z" p-id="948"></path><path d="M1095.489362 471.829787c-16.340426 19.06383-44.93617 22.468085-64.680851 7.489362-125.276596-92.595745-259.404255-157.957447-408.510639-157.957447-149.787234 0-283.234043 65.361702-408.510638 157.957447-20.425532 14.978723-48.340426 11.574468-64.680851-7.489362-8.851064-10.212766-12.93617-23.148936-10.893617-36.765957 1.361702-13.617021 8.170213-25.191489 19.06383-33.361702 142.297872-104.851064 296.170213-177.021277 465.702127-177.021277s323.404255 71.489362 465.702128 177.021277c10.893617 8.170213 17.702128 19.744681 19.06383 33.361702s-2.042553 25.87234-10.893617 36.765957z" p-id="949"></path><path d="M621.617021 542.638298c102.12766 0 189.957447 30.638298 277.106383 92.595745 20.425532 14.297872 48.340426 10.893617 64-8.170213 8.851064-10.893617 12.93617-23.148936 10.893617-36.765958-1.361702-13.617021-8.170213-25.191489-19.744681-33.361702-103.489362-73.531915-211.06383-110.297872-332.255319-110.297872s-229.446809 36.765957-332.255319 110.297872c-11.574468 8.170213-18.382979 19.06383-19.744681 33.361702-2.042553 13.617021 2.042553 26.553191 10.893617 36.765958 16.340426 19.06383 43.574468 22.468085 64 8.170213 86.468085-61.276596 174.978723-92.595745 277.106383-92.595745zM621.617021 758.468085h-2.042553c-48.340426 0-96 14.297872-136.170213 40.851064-20.425532 13.617021-46.978723 9.531915-63.319149-8.851064-9.531915-10.893617-12.93617-23.829787-10.893617-38.127659s8.851064-25.87234 21.106383-33.361703c55.829787-36.765957 121.191489-57.191489 189.276596-57.191489h4.085106c67.404255 0 133.446809 19.744681 189.276596 57.191489 11.574468 8.170213 19.06383 19.06383 21.106383 33.361703s-2.042553 27.234043-10.893617 38.127659c-15.659574 18.382979-42.893617 22.468085-63.319149 8.851064-40.170213-26.553191-87.148936-40.851064-136.170213-40.851064h-2.042553zM549.446809 949.106383c-0.680851 26.553191 12.93617 51.06383 35.404255 64.680851s51.06383 13.617021 73.531915 0 36.085106-38.12766 35.404255-64.680851c-1.361702-38.808511-33.361702-69.446809-72.170213-69.446809s-70.808511 30.638298-72.170212 69.446809z" p-id="950"></path></svg>